# xmcd
#
# Track frame offsets:
#	150
#	15854
#	31795
#	47776
#	64169
#	79439
#	94004
#	108795
#	126158
#	139988
#	154097
#	169356
#
# Disc length: 2522 seconds
#
# Revision: 0
# Processed by: cddbd v1.5.2PL0 Copyright (c) Steve Scherf et al.
# Submitted via: EasyCDDAExtractor 12.0.1.1
#
DISCID=9709d80c
DTITLE=Pk and Dansefolket - En God Venn
DYEAR=2009
DGENRE=Danseband
TTITLE0=Boots and Blåe Jeans
TTITLE1=Kvilelaus Kriger
TTITLE2=Rett Ut Om Di Dør
TTITLE3=Fint Å Vær I Lag
TTITLE4=No Vende Eg Heim
TTITLE5=Dansefolket
TTITLE6=Sunn I Dag
TTITLE7=Eg Vil Sove
TTITLE8=Dans Med Meg
TTITLE9=500 Mil e Langt Å Gå
TTITLE10=Når Han Snur Og Gjeng
TTITLE11=En God Venn
EXTD=
EXTT0=
EXTT1=
EXTT2=
EXTT3=
EXTT4=
EXTT5=
EXTT6=
EXTT7=
EXTT8=
EXTT9=
EXTT10=
EXTT11=
PLAYORDER=
